# xmcd
#
# Track frame offsets:
# 150
# 9932
# 23940
# 37765
# 42790
# 54712
# 66895
# 79720
# 89822
# 100550
# 107667
# 116747
# 131050
# 142562
# 152655
# 159157
# 170677
# 181385
# 191957
# 200597
# 217272
# 230507
#
# Disc length: 3177 seconds
#
#
# Revision: 0
# Processed by: cddbd v1.5.2PL0 Copyright (c) Steve Scherf et al.
# Submitted via: FreeRIP 2.51 
#
DISCID=2a0c6716
DTITLE=Blue Sky Boys - Farm and Fun Time Favourites Volume 2
DYEAR=1994
DGENRE=Country
TTITLE0=Amazing Grace
TTITLE1=Alabama
TTITLE2=Two Little Rose Buds
TTITLE3=Hop Light Ladies
TTITLE4=The B-I-B-L-E
TTITLE5=Sweetest Mother
TTITLE6=I Wish I Had Never Seen Sunshine
TTITLE7=Just A Little Talk With Jesus
TTITLE8=Unloved And Unclaimed
TTITLE9=East Tennessee Blues
TTITLE10=Beautiful
TTITLE11=Will You Miss Me?
TTITLE12=Nine Pound Hammer
TTITLE13=The Chapel In The Hills
TTITLE14=Lonesome Road Blues
TTITLE15=Whispering Hope
TTITLE16=Take Me Back To Tennessee
TTITLE17=This Evening Light
TTITLE18=Going Round this World, Baby Mine
TTITLE19=Short Life Of Trouble
TTITLE20=Teh Royal Telephone
TTITLE21=Old Joe Clark
EXTD=Recorded: Radio Station WCYB - \nBristol, Virginia. \nSummer 1949
EXTT0=
EXTT1=
EXTT2=
EXTT3=
EXTT4=
EXTT5=
EXTT6=
EXTT7=
EXTT8=
EXTT9=
EXTT10=
EXTT11=
EXTT12=
EXTT13=
EXTT14=
EXTT15=
EXTT16=
EXTT17=
EXTT18=
EXTT19=
EXTT20=
EXTT21=
PLAYORDER=
